<svg width="91" height="91" viewBox="0 0 91 91" fill="none" xmlns="http://www.w3.org/2000/svg">
<circle cx="45.5" cy="45.5" r="45.5" fill="#1B1B1B"/>
<g clip-path="url(#clip0)">
<path d="M57.0867 62.9999C56.0138 62.9999 55.2092 62.7243 54.1363 62.4487L53.3317 62.1731C49.0402 60.5196 46.8945 55.559 48.5038 51.1495L55.4774 33.5117C57.0867 29.1023 61.9146 26.8975 66.206 28.5511L67.0107 28.8267C71.3021 30.4802 73.4479 35.4408 71.8386 39.8503L65.1332 57.4881C63.7921 60.7952 60.8417 62.7243 57.6231 62.9999C57.3549 62.9999 57.3549 62.9999 57.0867 62.9999ZM38.848 62.4487C38.3116 62.4487 37.7751 62.4487 37.2387 62.4487C34.8248 62.1731 31.8744 61.3464 28.6558 59.6928C25.4372 58.3149 23.0232 56.3857 21.1457 54.7322C19.5364 53.0786 18.1954 51.1495 19 49.2204L21.6822 44.2597V43.9841L22.2186 43.7086C23.2915 42.8818 25.169 42.8818 26.7783 42.8818C29.1922 43.1574 32.1426 43.9841 35.3612 45.6377C38.3116 47.0156 40.9937 48.9448 42.603 50.8739C44.2123 52.5275 45.5534 54.4566 44.7488 56.3857L42.603 61.0708C41.7984 62.1731 40.4573 62.4487 38.848 62.4487ZM57.6231 61.0708C60.0371 61.0708 62.451 59.4172 63.5239 56.9369L66.7425 48.3936H66.206C65.6696 48.3936 65.1332 48.3936 64.5967 48.3936C61.1099 48.3936 57.0867 46.7401 54.6727 44.5353L53.5999 43.433L50.3813 51.7007C49.0402 55.0078 50.6495 58.866 54.1363 60.244L54.941 60.5196C55.7456 61.0708 56.5503 61.0708 57.6231 61.0708ZM38.848 60.5196C40.1891 60.5196 40.7255 60.244 40.9937 59.6928L42.0666 57.7637H41.2619C40.7255 57.7637 40.1891 57.7637 39.6526 57.7637C37.2387 57.4881 34.2883 56.6613 31.0697 55.0078C27.8511 53.6298 25.169 51.7007 23.5597 50.0471C22.755 49.496 22.2186 48.6692 21.9504 48.118L20.8775 50.0471C20.6093 50.5983 20.8775 51.7007 22.4868 53.3542C24.0961 55.0078 26.5101 56.6613 29.1922 58.0393C32.4108 59.4172 35.093 60.244 37.2387 60.5196C37.7751 60.5196 38.3116 60.5196 38.848 60.5196ZM59.5006 58.5905C58.1596 58.5905 57.0867 57.4881 57.0867 56.1101C57.0867 54.7322 58.1596 53.6298 59.5006 53.6298C60.8417 53.6298 61.9146 54.7322 61.9146 56.1101C62.1828 57.4881 61.1099 58.5905 59.5006 58.5905ZM53.5999 57.7637C52.2588 57.7637 51.1859 56.6613 51.1859 55.2834C51.1859 53.9054 52.2588 52.803 53.5999 52.803C54.941 52.803 56.0138 53.9054 56.0138 55.2834C56.0138 56.6613 54.941 57.7637 53.5999 57.7637ZM59.5006 56.6613C59.7689 56.6613 60.0371 56.3857 60.0371 56.1101C60.0371 55.8345 59.7689 55.559 59.5006 55.559C59.2324 55.559 58.9642 55.8345 58.9642 56.1101C58.9642 56.3857 59.2324 56.6613 59.5006 56.6613ZM40.9937 56.1101C42.3348 56.1101 42.8712 55.8345 43.1395 55.2834C43.4077 54.7322 43.1395 53.6298 41.5302 51.9763C40.4573 51.1495 39.6526 50.3227 38.3116 49.496L37.7751 49.2204L29.7287 52.2519C30.2651 52.5275 31.0697 53.0786 31.8744 53.3542C34.8248 54.7322 37.5069 55.559 39.6526 55.8345C39.9209 56.1101 40.4573 56.1101 40.9937 56.1101ZM53.5999 55.8345C53.8681 55.8345 54.1363 55.559 54.1363 55.2834C54.1363 55.0078 53.8681 54.7322 53.5999 54.7322C53.3317 54.7322 53.0634 55.0078 53.0634 55.2834C52.7952 55.559 53.0634 55.8345 53.5999 55.8345ZM57.3549 53.0786C56.0138 53.0786 54.941 51.9763 54.941 50.5983C54.941 49.2204 56.0138 48.118 57.3549 48.118C58.696 48.118 59.7689 49.2204 59.7689 50.5983C59.7689 51.9763 58.696 53.0786 57.3549 53.0786ZM57.3549 51.1495C57.6231 51.1495 57.8913 50.8739 57.8913 50.5983C57.8913 50.3227 57.6231 50.0471 57.3549 50.0471C56.8185 49.7716 56.5503 50.0471 56.5503 50.5983C56.5503 50.8739 56.8185 51.1495 57.3549 51.1495ZM27.5829 50.8739L35.6294 47.8424L34.5565 47.2912C31.6062 45.9133 28.924 45.0865 26.5101 44.8109C24.3643 44.5353 23.2915 45.0865 23.0232 45.3621C22.755 45.9133 23.0232 47.0156 24.6325 48.6692C24.9008 48.9448 25.4372 49.496 25.9736 49.7716L27.5829 50.8739ZM64.5967 46.7401C64.865 46.7401 65.1332 46.7401 65.4014 46.7401C65.9378 46.7401 66.7425 46.4645 67.2789 46.4645H67.5471L70.2293 39.5747C71.5704 36.2676 69.9611 32.4093 66.4743 31.0314L65.6696 30.7558C62.451 29.3778 58.696 31.0314 57.3549 34.6141L54.6727 41.7794C56.282 44.5353 60.8417 46.7401 64.5967 46.7401ZM59.5006 36.8188C59.2324 36.8188 59.2324 36.8188 59.5006 36.8188C58.696 36.8188 58.4278 36.2676 58.4278 35.7164C58.696 33.2361 61.1099 31.5826 63.5239 31.8582C64.0603 31.8582 64.3285 32.4093 64.3285 32.9605C64.3285 33.5117 63.7921 33.7873 63.2557 33.7873C61.9146 33.5117 60.5735 34.6141 60.3053 35.992C60.3053 36.2676 59.7689 36.8188 59.5006 36.8188Z" fill="#FF9900"/>
</g>
<defs>
<clipPath id="clip0">
<rect width="53.375" height="35" fill="white" transform="translate(19 28)"/>
</clipPath>
</defs>
</svg>
